<svg width="100px" height="100px" viewBox="0 0 32 32" xmlns="http://www.w3.org/2000/svg" fill="#5938ff" stroke="#5938ff"
    stroke-width="0.96">
    <!-- Folder Base -->
    <path d="M26.76,8.35L26.46,8L21,1.63l-0.24-0.28C20.57,1.13,20.29,1,20,1h-1H6C5.45,1,5,1.45,5,2v28c0,0.55,0.45,1,1,1h20
        c0.55,0,1-0.45,1-1V10V9C27,8.76,26.92,8.53,26.76,8.35z" fill="#5938ff" />
    <!-- Folder Top Flap -->
    <path
        d="M27,9v1h-7c-0.55,0-1-0.45-1-1V1h1c0.29,0,0.57,0.13,0.76,0.35L21,1.63L26.46,8l0.3,0.35C26.92,8.53,27,8.76,27,9z"
        fill="#ffffff" />
    <!-- Thick Tick Mark (Moved Slightly Up) -->
    <path d="M9.5,16.5l4.5,4.5l8.5-8.5c0.6-0.6,1.6-0.6,2.2,0s0.6,1.6,0,2.2l-9.5,9.5c-0.6,0.6-1.6,0.6-2.2,0l-5.5-5.5
        c-0.6-0.6-0.6-1.6,0-2.2S8.9,15.9,9.5,16.5z" fill="#ffffff" />
</svg>